<?xml version="1.0" encoding="UTF-8"?><svg xmlns="http://www.w3.org/2000/svg" xmlns:xlink="http://www.w3.org/1999/xlink" viewBox="0 0 600 224.05"><defs><style>.cls-1{fill:#fff;}.cls-2{isolation:isolate;}.cls-3{fill:none;}</style><clipPath id="clippath"><rect class="cls-3" x="-675.41" y="-2602.52" width="1920" height="1080"/></clipPath><clipPath id="clippath-1"><rect class="cls-3" x="-675.41" y="-2602.52" width="1920" height="1080"/></clipPath><clipPath id="clippath-2"><polygon class="cls-3" points="-480.08 -1522.52 -675.41 -1522.52 -675.41 -2602.52 -174.91 -2602.52 -480.08 -1522.52"/></clipPath></defs><g class="cls-2"><g id="Layer_1"><path class="cls-1" d="m263.2,200.28c-.42-.63-.79-1.31-1.27-1.89-20.22-24.09-40.44-48.17-60.68-72.23-.8-.95-1.19-1.88-1.19-3.15.03-32.43.03-64.86.03-97.28,0-.58,0-1.16,0-1.89h44.49c6.18,7.3,12.49,14.76,18.99,22.44,6.45-7.55,12.83-15.02,19.23-22.51h44.16c.04.69.1,1.32.1,1.95,0,32.69,0,65.38.03,98.07,0,1.26-.37,2.2-1.18,3.15-20.12,23.65-40.22,47.33-60.31,71.01-.61.72-1.08,1.56-1.62,2.34h-.78Zm1.09-112.04c4.54-8.12,8.99-16.09,13.56-24.25h-19.76c-.2.32-.39.59-.55.86-5.79,10.36-11.61,20.7-17.32,31.1-1.37,2.5-2.56,5.15-3.49,7.85-3.34,9.71-.24,20.38,7.75,26.81,6.6,5.31,14.27,6.95,22.47,5.74,10.44-1.55,18.12-7.07,21.46-17.31,2.84-8.72,1.65-16.94-5.26-23.64-3.16-3.07-7.09-4.86-11.34-5.85-2.4-.56-4.85-.85-7.52-1.31Z"/><path class="cls-1" d="m329.45,163.53h11.06c2.06,3.89,4.16,7.84,6.44,12.13,2.25-4.23,4.34-8.16,6.44-12.11h11.1v33.73h-8.67v-16.08c-.15-.03-.3-.06-.45-.09-1.35,2.78-2.68,5.58-4.07,8.34-1.36,2.69-2.48,5.5-4.37,8.09-3.22-5.42-5.65-11.11-8.84-16.49v16.22h-8.64v-33.73Z"/><path class="cls-1" d="m388.94,197.35h-9.53c-3.65-11.19-7.31-22.42-11.02-33.79h9.35c2.07,6.78,4.15,13.6,6.23,20.42.13.02.25.03.38.05,2.07-6.78,4.14-13.57,6.24-20.44h9.34c-3.68,11.3-7.32,22.48-10.99,33.77Z"/><path class="cls-1" d="m309.83,163.54h9.32c-2.16,3.86-4.21,7.53-6.37,11.38.7.12,1.18.23,1.66.29,5.77.73,9.65,4.19,10.23,9.14.66,5.6-2.44,10.71-7.75,12.66-3.57,1.31-7.18,1.24-10.69-.24-5.68-2.39-8.48-8.51-6.58-14.38.4-1.23.93-2.44,1.55-3.58,2.63-4.8,5.31-9.57,7.98-14.35.19-.33.44-.63.64-.93Zm6.37,22.25c-.02-2.54-1.81-4.42-4.23-4.44-2.5-.03-4.41,1.94-4.39,4.51.02,2.49,1.86,4.42,4.26,4.46,2.48.04,4.37-1.92,4.36-4.53Z"/></g></g></svg>