<?xml version="1.0" encoding="UTF-8"?><svg id="Layer_1" xmlns="http://www.w3.org/2000/svg" viewBox="0 0 600 110.01"><defs><style>.cls-1{fill:#fff;}</style></defs><path class="cls-1" d="m235.71,96.66c-.19.59-.44,1.12-.77,1.59-.33.48-.71.88-1.16,1.21s-.95.59-1.5.77-1.15.27-1.79.27c-.79,0-1.52-.15-2.2-.46-.68-.31-1.27-.73-1.77-1.28-.5-.54-.89-1.18-1.18-1.91s-.43-1.52-.43-2.36.14-1.63.43-2.36.68-1.37,1.18-1.91c.5-.54,1.09-.97,1.77-1.28.68-.31,1.41-.46,2.2-.46.65,0,1.26.09,1.82.27.56.18,1.06.43,1.51.76.45.33.83.74,1.16,1.21.33.48.58,1.01.75,1.59h-2.37c-.26-.53-.63-.97-1.13-1.31-.5-.34-1.08-.51-1.74-.51-.48,0-.92.11-1.33.32s-.77.5-1.07.86c-.3.36-.55.79-.72,1.28-.18.49-.27,1-.27,1.54s.09,1.07.27,1.56.42.91.72,1.28c.3.36.66.65,1.07.86.41.21.85.32,1.33.32.66,0,1.25-.18,1.74-.53s.88-.8,1.13-1.33h2.36Z"/><path class="cls-1" d="m270.43,98.01l-.78,2.31h-2.32l4.02-11.52h2.77l4.02,11.52h-2.32l-.78-2.31h-4.6Zm2.29-6.77l-1.61,4.73h3.22l-1.61-4.73Z"/><path class="cls-1" d="m319.12,92.51c0,.53-.09,1.02-.26,1.48-.18.45-.43.84-.75,1.17-.33.33-.72.58-1.19.76-.46.18-.98.27-1.54.27h-2.71v4.12h-2.19v-11.52h4.85c.6,0,1.13.09,1.61.26.48.18.88.43,1.2.75.32.32.57.71.74,1.17.17.46.26.97.26,1.54Zm-6.46-1.68v3.35h2.64c.51,0,.91-.13,1.2-.4.29-.27.43-.69.43-1.28s-.14-1.01-.43-1.28c-.29-.27-.69-.4-1.2-.4h-2.64Z"/><path class="cls-1" d="m353.95,100.31h-2.19v-11.52h2.19v11.52Z"/><path class="cls-1" d="m391.7,90.83v9.48h-2.19v-9.48h-3.09v-2.04h8.37v2.04h-3.09Z"/><path class="cls-1" d="m429.37,98.01l-.78,2.31h-2.32l4.02-11.52h2.77l4.02,11.52h-2.32l-.78-2.31h-4.6Zm2.29-6.77l-1.61,4.73h3.22l-1.61-4.73Z"/><path class="cls-1" d="m471.6,98.27h5.73v2.04h-7.92v-11.52h2.19v9.48Z"/><path class="cls-1" d="m265.95,37.15c0,7.83-2.31,14.53-6.71,19.38-2.38,2.68-5.37,4.77-8.87,6.11-3.58,1.42-7.6,2.16-12.07,2.16h-13.12V9.5h13.12c4.47,0,8.5.67,12.07,2.16,3.5,1.34,6.48,3.43,8.87,6.11,4.4,4.85,6.71,11.55,6.71,19.38Zm-8.65,0c0-5.66-1.56-10.36-4.47-13.57-3.28-3.65-8.12-5.44-14.53-5.44h-4.47v38.01h4.47c6.41,0,11.25-1.86,14.53-5.44,2.91-3.21,4.47-7.98,4.47-13.57Z"/><path class="cls-1" d="m319.98,67.27l-14.61-33.32-13.72,33.32-25.34-57.76h9.54l15.58,36.45,9.17-22.96,4.47-11.4,4.84,11.25,9.84,23.11,14.53-36.45h9.47l-23.78,57.76Z"/><path class="cls-1" d="m430.29,48.41c0,2.76-.6,5.22-1.79,7.45-1.19,2.09-2.91,3.88-5.07,5.29-3.8,2.38-8.94,3.65-15.2,3.65h-12.23V9.5h12.22c6.11,0,10.59,1.12,13.72,3.43,1.72,1.27,2.98,2.91,3.8,4.77.75,1.71,1.12,3.65,1.12,5.81,0,2.98-.97,6.63-4.32,10.14.9.6,1.71,1.27,2.53,2.01,1.64,1.64,2.91,3.43,3.8,5.44.97,2.24,1.41,4.7,1.41,7.31Zm-25.64-31.16v16.77c1.71-.37,3.73-.97,5.66-1.79,2.76-1.12,4.92-2.38,6.41-3.88,1.56-1.49,2.31-3.06,2.31-4.84,0-2.68-.97-3.73-1.79-4.32-2.09-1.56-6.11-1.94-9.02-1.94h-3.58Zm17.89,31.16c0-2.91-.97-5.22-2.91-7.08-1.12-1.12-2.53-2.01-4.25-2.76-.75.3-1.49.67-2.31.97-3.06,1.27-6.11,2.01-8.42,2.53v14.91h3.58c4.69,0,8.5-.82,10.96-2.38,2.31-1.49,3.35-3.43,3.35-6.19Z"/><path class="cls-1" d="m455.4,64.81c-5.66-.37-11.48-2.61-17.44-6.71l4.92-7.08c8.2,5.74,15.95,6.71,21.17,2.83,3.73-2.83,5.51-7.75,4.17-11.78-.67-1.86-1.86-3.35-3.73-4.47-2.31-1.42-5.44-2.09-9.32-2.09l-7.38.07,9.54-17.51h-15.88v-8.57h30.48l-9.91,18.04c2.61.6,4.92,1.49,7.01,2.68,3.5,2.16,6.04,5.29,7.31,9.09,1.27,3.65,1.19,7.83-.07,11.7-1.34,3.8-3.8,7.31-7.01,9.69-3.58,2.68-7.9,4.1-12.6,4.1-.44,0-.89,0-1.27,0Z"/><rect class="cls-1" x="351.45" y="9.5" width="34.34" height="7.75"/><rect class="cls-1" x="351.45" y="32.01" width="34.03" height="7.83"/><rect class="cls-1" x="351.45" y="56.98" width="34.34" height="7.83"/><path class="cls-1" d="m122.67,9.57v90.3h90.3V9.57h-90.3Zm29.38,77.79h-10.89v-29.24h10.89v29.24Zm21.24,0h-11.07v-44.43h11.07v44.43Zm21.18,0h-11.14V22.08h11.14v65.28Z"/></svg>